<svg version="1.1" xmlns="http://www.w3.org/2000/svg" xmlns:xlink="http://www.w3.org/1999/xlink" width="145.86248" height="145.86248" viewBox="0,0,145.86248,145.86248"><g transform="translate(-167.06876,-107.06876)"><g data-paper-data="{&quot;isPaintingLayer&quot;:true}" fill-rule="nonzero" stroke-linecap="butt" stroke-linejoin="miter" stroke-miterlimit="10" stroke-dasharray="" stroke-dashoffset="0" style="mix-blend-mode: normal"><path d="M168.81876,251.18124v-142.36248h142.36248v142.36248z" fill="#ffffff" stroke="#000000" stroke-width="3.5"/><path d="M178.38232,142.88415c0,-13.53199 10.96985,-24.50182 24.50184,-24.50182c13.53199,0 24.50184,10.96985 24.50184,24.50183c0,13.532 -10.96984,24.50184 -24.50184,24.50184c-13.53199,0 -24.50184,-10.96984 -24.50184,-24.50184z" fill="#d90000" stroke="none" stroke-width="0"/><path d="M246.01531,159.86948c0,-15.45373 12.52772,-27.98143 27.98145,-27.98143c15.45373,0 27.98145,12.52772 27.98145,27.98143c0,15.45373 -12.52771,27.98145 -27.98145,27.98145c-15.45373,0 -27.98145,-12.52772 -27.98145,-27.98145z" fill="#d90000" stroke="none" stroke-width="0"/><path d="M185.70206,212.74214c0,-16.1097 12.87392,-29.16916 28.7547,-29.16916c15.88078,0 28.7547,13.05949 28.7547,29.16916c0,16.1097 -12.87391,29.16918 -28.7547,29.16918c-15.88078,0 -28.7547,-13.05949 -28.7547,-29.16918z" fill="#d90000" stroke="none" stroke-width="0"/></g></g></svg>