<svg version="1.1" xmlns="http://www.w3.org/2000/svg" xmlns:xlink="http://www.w3.org/1999/xlink" width="145.86248" height="145.86248" viewBox="0,0,145.86248,145.86248"><g transform="translate(-167.06876,-107.06876)"><g data-paper-data="{&quot;isPaintingLayer&quot;:true}" fill-rule="nonzero" stroke-linecap="butt" stroke-linejoin="miter" stroke-miterlimit="10" stroke-dasharray="" stroke-dashoffset="0" style="mix-blend-mode: normal"><path d="M168.81876,251.18124v-142.36248h142.36248v142.36248z" fill="#ffffff" stroke="#000000" stroke-width="3.5"/><path d="M173.74283,140.95103c0,-15.02668 12.00843,-27.20819 26.82158,-27.20819c14.81315,0 26.82158,12.18153 26.82158,27.20819c0,15.02668 -12.00842,27.2082 -26.82158,27.2082c-14.81315,0 -26.82158,-12.18153 -26.82158,-27.2082z" fill="#d90000" stroke="none" stroke-width="0"/><path d="M231.32362,208.19739c0,-20.79189 16.85515,-37.64702 37.64703,-37.64702c20.79188,0 37.64704,16.85515 37.64704,37.64702c0,20.79189 -16.85514,37.64704 -37.64704,37.64704c-20.79189,0 -37.64703,-16.85515 -37.64703,-37.64704z" fill="#d90000" stroke="none" stroke-width="0"/></g></g></svg>